<?xml version="1.0" standalone="no"?>
<!DOCTYPE svg PUBLIC "-//W3C//DTD SVG 20010904//EN" "http://www.w3.org/TR/2001/REC-SVG-20010904/DTD/svg10.dtd">
<svg version="1.0" xmlns="http://www.w3.org/2000/svg" width="700.000000pt" height="700.000000pt" viewBox="0 0 700.000000 700.000000" preserveAspectRatio="xMidYMid meet">
  <metadata>Created by potrace 1.14, written by Peter Selinger 2001-2017</metadata>
  <g transform="translate(0.000000,700.000000) scale(0.100000,-0.100000)" fill="#000000" stroke="none">
    <path d="M1315 6989 c-457 -59 -858 -389 -1005 -827 -67 -199 -62 -18 -67 -2575 -3 -1590 -2 -2358 6 -2445 26 -315 138 -560 355 -778 179 -180 376 -287 626 -341 81 -17 193 -18 2270 -18 1822 0 2197 2 2255 14 238 47 469 167 632 328 220 218 337 474 364 795 8 87 9 855 6 2445 -4 2105 -6 2326 -21 2403 -98 498 -453 866 -951 983 l-90 21 -2155 2 c-1233 1 -2185 -2 -2225 -7z m521 -1648 c68 -32 126 -92 148 -155 9 -23 130 -471 271 -996 141 -525 258 -956 260 -958 2 -2 6 5 9 15 194 662 580 1952 588 1966 20 38 92 109 133 130 38 21 53 22 295 22 250 0 256 -1 304 -24 60 -30 122 -90 145 -141 9 -21 149 -472 311 -1003 162 -531 298 -963 301 -959 3 4 124 441 268 972 168 616 272 982 289 1013 31 58 69 92 139 124 50 23 61 24 227 21 l174 -3 43 -30 c64 -45 102 -113 107 -189 4 -57 -29 -179 -408 -1526 -227 -806 -421 -1482 -432 -1503 -26 -53 -91 -115 -147 -141 -43 -20 -62 -21 -286 -21 -215 0 -244 2 -275 19 -48 25 -98 74 -120 116 -9 19 -133 393 -275 830 -141 437 -289 892 -327 1009 l-70 215 -224 -700 c-493 -1538 -433 -1363 -484 -1415 -74 -74 -108 -81 -373 -77 -241 4 -251 6 -334 67 -23 16 -53 49 -67 73 -37 64 -896 2983 -896 3046 0 53 35 134 73 170 13 12 41 31 63 42 35 17 61 19 274 20 l235 0 61 -29z" />
  </g>
</svg>
