<svg x="0px" y="0px" width="64.381px" height="64.381px" viewBox="0 0 64.381 64.381" xmlns="http://www.w3.org/2000/svg">
	<path d="M19.38,49.259c0,3.828-3.104,6.932-6.932,6.932H7.311c-3.828,0-6.932-3.104-6.932-6.932V29.123c0.001-3.828,3.105-6.932,6.933-6.932h5.137c3.828,0,6.932,3.104,6.932,6.932L19.38,49.259L19.38,49.259z M15.38,29.123c0-1.619-1.313-2.932-2.932-2.932H7.311c-1.619,0-2.932,1.313-2.932,2.932v20.136c0.001,1.619,1.314,2.932,2.933,2.932h5.137c1.619,0,2.932-1.312,2.932-2.932L15.38,29.123L15.38,29.123z"/>
	<path d="M42.38,49.259c0,3.828-3.104,6.932-6.933,6.932h-5.136c-3.828,0-6.932-3.104-6.932-6.932V18.123c0-3.828,3.104-6.932,6.932-6.932h5.136c3.828,0,6.933,3.104,6.933,6.932V49.259z M38.38,18.123c0-1.619-1.313-2.932-2.933-2.932h-5.136c-1.619,0-2.932,1.313-2.932,2.932v31.136c0,1.619,1.313,2.933,2.932,2.933h5.136c1.619,0,2.933-1.313,2.933-2.933V18.123z"/>
	<path d="M64.38,49.259c0,3.828-3.104,6.932-6.933,6.932h-5.137c-3.828,0-6.932-3.104-6.932-6.932V7.123c0.001-3.828,3.105-6.932,6.934-6.932h5.137c3.828,0,6.932,3.104,6.932,6.932L64.38,49.259L64.38,49.259z M60.38,7.123c0-1.619-1.312-2.932-2.931-2.932h-5.137c-1.619,0-2.933,1.313-2.933,2.932v42.136c0,1.619,1.313,2.933,2.933,2.933h5.137c1.619,0,2.932-1.313,2.932-2.933L60.38,7.123L60.38,7.123z"/>
</svg>
